<svg width="862" height="596" viewBox="0 0 862 596" xmlns="http://www.w3.org/2000/svg">
<rect x="0" y="0" width="862" height="596" opacity="1" fill="#FFFFFF" stroke="none"/>
<polyline fill="none" opacity="1" stroke="#FF0000" stroke-width="3" points="710,147 778,115 "/>
<polyline fill="none" opacity="1" stroke="#FF0000" stroke-width="3" points="619,191 529,177 "/>
<polyline fill="none" opacity="1" stroke="#FF0000" stroke-width="3" points="529,177 442,148 "/>
<polyline fill="none" opacity="1" stroke="#FF0000" stroke-width="3" points="442,148 370,123 "/>
<polyline fill="none" opacity="1" stroke="#FF0000" stroke-width="3" points="560,270 484,248 "/>
<polyline fill="none" opacity="1" stroke="#FF0000" stroke-width="3" points="484,248 401,217 "/>
<polyline fill="none" opacity="1" stroke="#FF0000" stroke-width="3" points="401,217 329,188 "/>
<polyline fill="none" opacity="1" stroke="#FF0000" stroke-width="3" points="509,358 436,332 "/>
<polyline fill="none" opacity="1" stroke="#FF0000" stroke-width="3" points="436,332 355,299 "/>
<polyline fill="none" opacity="1" stroke="#FF0000" stroke-width="3" points="355,299 284,268 "/>
<polyline fill="none" opacity="1" stroke="#FF0000" stroke-width="3" points="461,443 390,416 "/>
<polyline fill="none" opacity="1" stroke="#FF0000" stroke-width="3" points="390,416 311,382 "/>
<polyline fill="none" opacity="1" stroke="#FF0000" stroke-width="3" points="311,382 243,350 "/>
<polyline fill="none" opacity="1" stroke="#FF0000" stroke-width="3" points="421,512 352,487 "/>
<polyline fill="none" opacity="1" stroke="#FF0000" stroke-width="3" points="352,487 276,454 "/>
<polyline fill="none" opacity="1" stroke="#FF0000" stroke-width="3" points="276,454 211,420 "/>
<polyline fill="none" opacity="1" stroke="#FF0000" stroke-width="3" points="619,191 560,270 "/>
<polyline fill="none" opacity="1" stroke="#FF0000" stroke-width="3" points="529,177 484,248 "/>
<polyline fill="none" opacity="1" stroke="#FF0000" stroke-width="3" points="442,148 401,217 "/>
<polyline fill="none" opacity="1" stroke="#FF0000" stroke-width="3" points="370,123 329,188 "/>
<polyline fill="none" opacity="1" stroke="#FF0000" stroke-width="3" points="560,270 509,358 "/>
<polyline fill="none" opacity="1" stroke="#FF0000" stroke-width="3" points="484,248 436,332 "/>
<polyline fill="none" opacity="1" stroke="#FF0000" stroke-width="3" points="401,217 355,299 "/>
<polyline fill="none" opacity="1" stroke="#FF0000" stroke-width="3" points="329,188 284,268 "/>
<polyline fill="none" opacity="1" stroke="#FF0000" stroke-width="3" points="509,358 461,443 "/>
<polyline fill="none" opacity="1" stroke="#FF0000" stroke-width="3" points="436,332 390,416 "/>
<polyline fill="none" opacity="1" stroke="#FF0000" stroke-width="3" points="355,299 311,382 "/>
<polyline fill="none" opacity="1" stroke="#FF0000" stroke-width="3" points="284,268 243,350 "/>
<polyline fill="none" opacity="1" stroke="#FF0000" stroke-width="3" points="461,443 421,512 "/>
<polyline fill="none" opacity="1" stroke="#FF0000" stroke-width="3" points="390,416 352,487 "/>
<polyline fill="none" opacity="1" stroke="#FF0000" stroke-width="3" points="311,382 276,454 "/>
<polyline fill="none" opacity="1" stroke="#FF0000" stroke-width="3" points="243,350 211,420 "/>
<polyline fill="none" opacity="1" stroke="#FF0000" stroke-width="3" points="710,147 619,191 "/>
<circle cx="710" cy="147" r="10" opacity="1" fill="#000000" stroke="none" stroke-width="1"/>
<circle cx="778" cy="115" r="10" opacity="1" fill="#000000" stroke="none" stroke-width="1"/>
<circle cx="619" cy="191" r="10" opacity="1" fill="#000000" stroke="none" stroke-width="1"/>
<circle cx="529" cy="177" r="10" opacity="1" fill="#000000" stroke="none" stroke-width="1"/>
<circle cx="442" cy="148" r="10" opacity="1" fill="#000000" stroke="none" stroke-width="1"/>
<circle cx="370" cy="123" r="10" opacity="1" fill="#000000" stroke="none" stroke-width="1"/>
<circle cx="560" cy="270" r="10" opacity="1" fill="#000000" stroke="none" stroke-width="1"/>
<circle cx="484" cy="248" r="10" opacity="1" fill="#000000" stroke="none" stroke-width="1"/>
<circle cx="401" cy="217" r="10" opacity="1" fill="#000000" stroke="none" stroke-width="1"/>
<circle cx="329" cy="188" r="10" opacity="1" fill="#000000" stroke="none" stroke-width="1"/>
<circle cx="509" cy="358" r="10" opacity="1" fill="#000000" stroke="none" stroke-width="1"/>
<circle cx="436" cy="332" r="10" opacity="1" fill="#000000" stroke="none" stroke-width="1"/>
<circle cx="355" cy="299" r="10" opacity="1" fill="#000000" stroke="none" stroke-width="1"/>
<circle cx="284" cy="268" r="10" opacity="1" fill="#000000" stroke="none" stroke-width="1"/>
<circle cx="461" cy="443" r="10" opacity="1" fill="#000000" stroke="none" stroke-width="1"/>
<circle cx="390" cy="416" r="10" opacity="1" fill="#000000" stroke="none" stroke-width="1"/>
<circle cx="311" cy="382" r="10" opacity="1" fill="#000000" stroke="none" stroke-width="1"/>
<circle cx="243" cy="350" r="10" opacity="1" fill="#000000" stroke="none" stroke-width="1"/>
<circle cx="421" cy="512" r="10" opacity="1" fill="#000000" stroke="none" stroke-width="1"/>
<circle cx="352" cy="487" r="10" opacity="1" fill="#000000" stroke="none" stroke-width="1"/>
<circle cx="276" cy="454" r="10" opacity="1" fill="#000000" stroke="none" stroke-width="1"/>
<circle cx="211" cy="420" r="10" opacity="1" fill="#000000" stroke="none" stroke-width="1"/>
<text x="720" y="147" dy="0.5ex" text-anchor="start" font-family="sans-serif" font-size="16.129032258064516" opacity="1" fill="#000000">
0
</text>
<text x="788" y="115" dy="0.5ex" text-anchor="start" font-family="sans-serif" font-size="16.129032258064516" opacity="1" fill="#000000">
1
</text>
<text x="629" y="191" dy="0.5ex" text-anchor="start" font-family="sans-serif" font-size="16.129032258064516" opacity="1" fill="#000000">
2
</text>
<text x="539" y="177" dy="0.5ex" text-anchor="start" font-family="sans-serif" font-size="16.129032258064516" opacity="1" fill="#000000">
3
</text>
<text x="452" y="148" dy="0.5ex" text-anchor="start" font-family="sans-serif" font-size="16.129032258064516" opacity="1" fill="#000000">
4
</text>
<text x="380" y="123" dy="0.5ex" text-anchor="start" font-family="sans-serif" font-size="16.129032258064516" opacity="1" fill="#000000">
5
</text>
<text x="570" y="270" dy="0.5ex" text-anchor="start" font-family="sans-serif" font-size="16.129032258064516" opacity="1" fill="#000000">
6
</text>
<text x="494" y="248" dy="0.5ex" text-anchor="start" font-family="sans-serif" font-size="16.129032258064516" opacity="1" fill="#000000">
7
</text>
<text x="411" y="217" dy="0.5ex" text-anchor="start" font-family="sans-serif" font-size="16.129032258064516" opacity="1" fill="#000000">
8
</text>
<text x="339" y="188" dy="0.5ex" text-anchor="start" font-family="sans-serif" font-size="16.129032258064516" opacity="1" fill="#000000">
9
</text>
<text x="519" y="358" dy="0.5ex" text-anchor="start" font-family="sans-serif" font-size="16.129032258064516" opacity="1" fill="#000000">
10
</text>
<text x="446" y="332" dy="0.5ex" text-anchor="start" font-family="sans-serif" font-size="16.129032258064516" opacity="1" fill="#000000">
11
</text>
<text x="365" y="299" dy="0.5ex" text-anchor="start" font-family="sans-serif" font-size="16.129032258064516" opacity="1" fill="#000000">
12
</text>
<text x="294" y="268" dy="0.5ex" text-anchor="start" font-family="sans-serif" font-size="16.129032258064516" opacity="1" fill="#000000">
13
</text>
<text x="471" y="443" dy="0.5ex" text-anchor="start" font-family="sans-serif" font-size="16.129032258064516" opacity="1" fill="#000000">
14
</text>
<text x="400" y="416" dy="0.5ex" text-anchor="start" font-family="sans-serif" font-size="16.129032258064516" opacity="1" fill="#000000">
15
</text>
<text x="321" y="382" dy="0.5ex" text-anchor="start" font-family="sans-serif" font-size="16.129032258064516" opacity="1" fill="#000000">
16
</text>
<text x="253" y="350" dy="0.5ex" text-anchor="start" font-family="sans-serif" font-size="16.129032258064516" opacity="1" fill="#000000">
17
</text>
<text x="431" y="512" dy="0.5ex" text-anchor="start" font-family="sans-serif" font-size="16.129032258064516" opacity="1" fill="#000000">
18
</text>
<text x="362" y="487" dy="0.5ex" text-anchor="start" font-family="sans-serif" font-size="16.129032258064516" opacity="1" fill="#000000">
19
</text>
<text x="286" y="454" dy="0.5ex" text-anchor="start" font-family="sans-serif" font-size="16.129032258064516" opacity="1" fill="#000000">
20
</text>
<text x="221" y="420" dy="0.5ex" text-anchor="start" font-family="sans-serif" font-size="16.129032258064516" opacity="1" fill="#000000">
21
</text>
</svg>
