<svg width="436" height="264" viewBox="0 0 436 264" xmlns="http://www.w3.org/2000/svg">
<rect x="0" y="0" width="436" height="264" opacity="1" fill="#FFFFFF" stroke="none"/>
<polyline fill="none" opacity="1" stroke="#FF0000" stroke-width="3" points="141,173 108,227 "/>
<polyline fill="none" opacity="1" stroke="#FF0000" stroke-width="3" points="108,227 82,196 "/>
<polyline fill="none" opacity="1" stroke="#FF0000" stroke-width="3" points="82,196 141,173 "/>
<polyline fill="none" opacity="1" stroke="#FF0000" stroke-width="3" points="211,114 174,64 "/>
<polyline fill="none" opacity="1" stroke="#FF0000" stroke-width="3" points="174,64 211,51 "/>
<polyline fill="none" opacity="1" stroke="#FF0000" stroke-width="3" points="211,51 211,114 "/>
<polyline fill="none" opacity="1" stroke="#FF0000" stroke-width="3" points="303,118 365,100 "/>
<polyline fill="none" opacity="1" stroke="#FF0000" stroke-width="3" points="365,100 363,140 "/>
<polyline fill="none" opacity="1" stroke="#FF0000" stroke-width="3" points="363,140 303,118 "/>
<polyline fill="none" opacity="1" stroke="#FF0000" stroke-width="3" points="141,173 211,114 "/>
<polyline fill="none" opacity="1" stroke="#FF0000" stroke-width="3" points="211,114 303,118 "/>
<circle cx="141" cy="173" r="10" opacity="1" fill="#000000" stroke="none" stroke-width="1"/>
<circle cx="108" cy="227" r="10" opacity="1" fill="#000000" stroke="none" stroke-width="1"/>
<circle cx="82" cy="196" r="10" opacity="1" fill="#000000" stroke="none" stroke-width="1"/>
<circle cx="211" cy="114" r="10" opacity="1" fill="#000000" stroke="none" stroke-width="1"/>
<circle cx="174" cy="64" r="10" opacity="1" fill="#000000" stroke="none" stroke-width="1"/>
<circle cx="211" cy="51" r="10" opacity="1" fill="#000000" stroke="none" stroke-width="1"/>
<circle cx="303" cy="118" r="10" opacity="1" fill="#000000" stroke="none" stroke-width="1"/>
<circle cx="365" cy="100" r="10" opacity="1" fill="#000000" stroke="none" stroke-width="1"/>
<circle cx="363" cy="140" r="10" opacity="1" fill="#000000" stroke="none" stroke-width="1"/>
<text x="151" y="173" dy="0.5ex" text-anchor="start" font-family="sans-serif" font-size="16.129032258064516" opacity="1" fill="#000000">
0
</text>
<text x="118" y="227" dy="0.5ex" text-anchor="start" font-family="sans-serif" font-size="16.129032258064516" opacity="1" fill="#000000">
1
</text>
<text x="92" y="196" dy="0.5ex" text-anchor="start" font-family="sans-serif" font-size="16.129032258064516" opacity="1" fill="#000000">
2
</text>
<text x="221" y="114" dy="0.5ex" text-anchor="start" font-family="sans-serif" font-size="16.129032258064516" opacity="1" fill="#000000">
3
</text>
<text x="184" y="64" dy="0.5ex" text-anchor="start" font-family="sans-serif" font-size="16.129032258064516" opacity="1" fill="#000000">
4
</text>
<text x="221" y="51" dy="0.5ex" text-anchor="start" font-family="sans-serif" font-size="16.129032258064516" opacity="1" fill="#000000">
5
</text>
<text x="313" y="118" dy="0.5ex" text-anchor="start" font-family="sans-serif" font-size="16.129032258064516" opacity="1" fill="#000000">
6
</text>
<text x="375" y="100" dy="0.5ex" text-anchor="start" font-family="sans-serif" font-size="16.129032258064516" opacity="1" fill="#000000">
7
</text>
<text x="373" y="140" dy="0.5ex" text-anchor="start" font-family="sans-serif" font-size="16.129032258064516" opacity="1" fill="#000000">
8
</text>
</svg>
