<svg width="3265" height="3835" viewBox="0 0 3265 3835" xmlns="http://www.w3.org/2000/svg">
<rect x="0" y="0" width="3265" height="3835" opacity="1" fill="#FFFFFF" stroke="none"/>
<polyline fill="none" opacity="1" stroke="#FF0000" stroke-width="3" points="1707,1830 1865,1662 "/>
<polyline fill="none" opacity="1" stroke="#FF0000" stroke-width="3" points="1707,1830 1395,2165 "/>
<polyline fill="none" opacity="1" stroke="#FF0000" stroke-width="3" points="1865,1662 2059,1675 "/>
<polyline fill="none" opacity="1" stroke="#FF0000" stroke-width="3" points="1865,1662 1853,1256 "/>
<polyline fill="none" opacity="1" stroke="#FF0000" stroke-width="3" points="2059,1675 2179,1606 "/>
<polyline fill="none" opacity="1" stroke="#FF0000" stroke-width="3" points="2059,1675 2339,1819 "/>
<polyline fill="none" opacity="1" stroke="#FF0000" stroke-width="3" points="2179,1606 2265,1597 "/>
<polyline fill="none" opacity="1" stroke="#FF0000" stroke-width="3" points="2179,1606 2352,1459 "/>
<polyline fill="none" opacity="1" stroke="#FF0000" stroke-width="3" points="2265,1597 2317,1581 "/>
<polyline fill="none" opacity="1" stroke="#FF0000" stroke-width="3" points="2265,1597 2400,1595 "/>
<polyline fill="none" opacity="1" stroke="#FF0000" stroke-width="3" points="2352,1459 2398,1409 "/>
<polyline fill="none" opacity="1" stroke="#FF0000" stroke-width="3" points="2352,1459 2483,1381 "/>
<polyline fill="none" opacity="1" stroke="#FF0000" stroke-width="3" points="2339,1819 2405,1899 "/>
<polyline fill="none" opacity="1" stroke="#FF0000" stroke-width="3" points="2339,1819 2575,1854 "/>
<polyline fill="none" opacity="1" stroke="#FF0000" stroke-width="3" points="2405,1899 2441,1949 "/>
<polyline fill="none" opacity="1" stroke="#FF0000" stroke-width="3" points="2405,1899 2501,2009 "/>
<polyline fill="none" opacity="1" stroke="#FF0000" stroke-width="3" points="2575,1854 2645,1863 "/>
<polyline fill="none" opacity="1" stroke="#FF0000" stroke-width="3" points="2575,1854 2728,1885 "/>
<polyline fill="none" opacity="1" stroke="#FF0000" stroke-width="3" points="1853,1256 1768,1139 "/>
<polyline fill="none" opacity="1" stroke="#FF0000" stroke-width="3" points="1853,1256 1987,962 "/>
<polyline fill="none" opacity="1" stroke="#FF0000" stroke-width="3" points="1768,1139 1686,1093 "/>
<polyline fill="none" opacity="1" stroke="#FF0000" stroke-width="3" points="1768,1139 1681,925 "/>
<polyline fill="none" opacity="1" stroke="#FF0000" stroke-width="3" points="1686,1093 1636,1066 "/>
<polyline fill="none" opacity="1" stroke="#FF0000" stroke-width="3" points="1686,1093 1562,1030 "/>
<polyline fill="none" opacity="1" stroke="#FF0000" stroke-width="3" points="1681,925 1657,861 "/>
<polyline fill="none" opacity="1" stroke="#FF0000" stroke-width="3" points="1681,925 1612,787 "/>
<polyline fill="none" opacity="1" stroke="#FF0000" stroke-width="3" points="1987,962 1996,856 "/>
<polyline fill="none" opacity="1" stroke="#FF0000" stroke-width="3" points="1987,962 2132,771 "/>
<polyline fill="none" opacity="1" stroke="#FF0000" stroke-width="3" points="1996,856 2005,793 "/>
<polyline fill="none" opacity="1" stroke="#FF0000" stroke-width="3" points="1996,856 1989,705 "/>
<polyline fill="none" opacity="1" stroke="#FF0000" stroke-width="3" points="2132,771 2180,718 "/>
<polyline fill="none" opacity="1" stroke="#FF0000" stroke-width="3" points="2132,771 2209,635 "/>
<polyline fill="none" opacity="1" stroke="#FF0000" stroke-width="3" points="1395,2165 1201,2156 "/>
<polyline fill="none" opacity="1" stroke="#FF0000" stroke-width="3" points="1395,2165 1404,2565 "/>
<polyline fill="none" opacity="1" stroke="#FF0000" stroke-width="3" points="1201,2156 1098,2070 "/>
<polyline fill="none" opacity="1" stroke="#FF0000" stroke-width="3" points="1201,2156 900,2266 "/>
<polyline fill="none" opacity="1" stroke="#FF0000" stroke-width="3" points="1098,2070 1014,2050 "/>
<polyline fill="none" opacity="1" stroke="#FF0000" stroke-width="3" points="1098,2070 962,1899 "/>
<polyline fill="none" opacity="1" stroke="#FF0000" stroke-width="3" points="1014,2050 961,2043 "/>
<polyline fill="none" opacity="1" stroke="#FF0000" stroke-width="3" points="1014,2050 882,2017 "/>
<polyline fill="none" opacity="1" stroke="#FF0000" stroke-width="3" points="962,1899 929,1841 "/>
<polyline fill="none" opacity="1" stroke="#FF0000" stroke-width="3" points="962,1899 847,1804 "/>
<polyline fill="none" opacity="1" stroke="#FF0000" stroke-width="3" points="900,2266 794,2267 "/>
<polyline fill="none" opacity="1" stroke="#FF0000" stroke-width="3" points="900,2266 695,2390 "/>
<polyline fill="none" opacity="1" stroke="#FF0000" stroke-width="3" points="794,2267 731,2272 "/>
<polyline fill="none" opacity="1" stroke="#FF0000" stroke-width="3" points="794,2267 646,2243 "/>
<polyline fill="none" opacity="1" stroke="#FF0000" stroke-width="3" points="695,2390 638,2432 "/>
<polyline fill="none" opacity="1" stroke="#FF0000" stroke-width="3" points="695,2390 551,2449 "/>
<polyline fill="none" opacity="1" stroke="#FF0000" stroke-width="3" points="1404,2565 1488,2679 "/>
<polyline fill="none" opacity="1" stroke="#FF0000" stroke-width="3" points="1404,2565 1272,2861 "/>
<polyline fill="none" opacity="1" stroke="#FF0000" stroke-width="3" points="1488,2679 1509,2767 "/>
<polyline fill="none" opacity="1" stroke="#FF0000" stroke-width="3" points="1488,2679 1659,2826 "/>
<polyline fill="none" opacity="1" stroke="#FF0000" stroke-width="3" points="1509,2767 1524,2821 "/>
<polyline fill="none" opacity="1" stroke="#FF0000" stroke-width="3" points="1509,2767 1534,2905 "/>
<polyline fill="none" opacity="1" stroke="#FF0000" stroke-width="3" points="1659,2826 1716,2863 "/>
<polyline fill="none" opacity="1" stroke="#FF0000" stroke-width="3" points="1659,2826 1752,2944 "/>
<polyline fill="none" opacity="1" stroke="#FF0000" stroke-width="3" points="1272,2861 1265,2968 "/>
<polyline fill="none" opacity="1" stroke="#FF0000" stroke-width="3" points="1272,2861 1131,3054 "/>
<polyline fill="none" opacity="1" stroke="#FF0000" stroke-width="3" points="1265,2968 1256,3031 "/>
<polyline fill="none" opacity="1" stroke="#FF0000" stroke-width="3" points="1265,2968 1276,3119 "/>
<polyline fill="none" opacity="1" stroke="#FF0000" stroke-width="3" points="1131,3054 1084,3108 "/>
<polyline fill="none" opacity="1" stroke="#FF0000" stroke-width="3" points="1131,3054 1058,3192 "/>
<circle cx="1707" cy="1830" r="10" opacity="1" fill="#000000" stroke="none" stroke-width="1"/>
<circle cx="1865" cy="1662" r="10" opacity="1" fill="#000000" stroke="none" stroke-width="1"/>
<circle cx="1395" cy="2165" r="10" opacity="1" fill="#000000" stroke="none" stroke-width="1"/>
<circle cx="2059" cy="1675" r="10" opacity="1" fill="#000000" stroke="none" stroke-width="1"/>
<circle cx="1853" cy="1256" r="10" opacity="1" fill="#000000" stroke="none" stroke-width="1"/>
<circle cx="2179" cy="1606" r="10" opacity="1" fill="#000000" stroke="none" stroke-width="1"/>
<circle cx="2339" cy="1819" r="10" opacity="1" fill="#000000" stroke="none" stroke-width="1"/>
<circle cx="2265" cy="1597" r="10" opacity="1" fill="#000000" stroke="none" stroke-width="1"/>
<circle cx="2352" cy="1459" r="10" opacity="1" fill="#000000" stroke="none" stroke-width="1"/>
<circle cx="2317" cy="1581" r="10" opacity="1" fill="#000000" stroke="none" stroke-width="1"/>
<circle cx="2400" cy="1595" r="10" opacity="1" fill="#000000" stroke="none" stroke-width="1"/>
<circle cx="2398" cy="1409" r="10" opacity="1" fill="#000000" stroke="none" stroke-width="1"/>
<circle cx="2483" cy="1381" r="10" opacity="1" fill="#000000" stroke="none" stroke-width="1"/>
<circle cx="2405" cy="1899" r="10" opacity="1" fill="#000000" stroke="none" stroke-width="1"/>
<circle cx="2575" cy="1854" r="10" opacity="1" fill="#000000" stroke="none" stroke-width="1"/>
<circle cx="2441" cy="1949" r="10" opacity="1" fill="#000000" stroke="none" stroke-width="1"/>
<circle cx="2501" cy="2009" r="10" opacity="1" fill="#000000" stroke="none" stroke-width="1"/>
<circle cx="2645" cy="1863" r="10" opacity="1" fill="#000000" stroke="none" stroke-width="1"/>
<circle cx="2728" cy="1885" r="10" opacity="1" fill="#000000" stroke="none" stroke-width="1"/>
<circle cx="1768" cy="1139" r="10" opacity="1" fill="#000000" stroke="none" stroke-width="1"/>
<circle cx="1987" cy="962" r="10" opacity="1" fill="#000000" stroke="none" stroke-width="1"/>
<circle cx="1686" cy="1093" r="10" opacity="1" fill="#000000" stroke="none" stroke-width="1"/>
<circle cx="1681" cy="925" r="10" opacity="1" fill="#000000" stroke="none" stroke-width="1"/>
<circle cx="1636" cy="1066" r="10" opacity="1" fill="#000000" stroke="none" stroke-width="1"/>
<circle cx="1562" cy="1030" r="10" opacity="1" fill="#000000" stroke="none" stroke-width="1"/>
<circle cx="1657" cy="861" r="10" opacity="1" fill="#000000" stroke="none" stroke-width="1"/>
<circle cx="1612" cy="787" r="10" opacity="1" fill="#000000" stroke="none" stroke-width="1"/>
<circle cx="1996" cy="856" r="10" opacity="1" fill="#000000" stroke="none" stroke-width="1"/>
<circle cx="2132" cy="771" r="10" opacity="1" fill="#000000" stroke="none" stroke-width="1"/>
<circle cx="2005" cy="793" r="10" opacity="1" fill="#000000" stroke="none" stroke-width="1"/>
<circle cx="1989" cy="705" r="10" opacity="1" fill="#000000" stroke="none" stroke-width="1"/>
<circle cx="2180" cy="718" r="10" opacity="1" fill="#000000" stroke="none" stroke-width="1"/>
<circle cx="2209" cy="635" r="10" opacity="1" fill="#000000" stroke="none" stroke-width="1"/>
<circle cx="1201" cy="2156" r="10" opacity="1" fill="#000000" stroke="none" stroke-width="1"/>
<circle cx="1404" cy="2565" r="10" opacity="1" fill="#000000" stroke="none" stroke-width="1"/>
<circle cx="1098" cy="2070" r="10" opacity="1" fill="#000000" stroke="none" stroke-width="1"/>
<circle cx="900" cy="2266" r="10" opacity="1" fill="#000000" stroke="none" stroke-width="1"/>
<circle cx="1014" cy="2050" r="10" opacity="1" fill="#000000" stroke="none" stroke-width="1"/>
<circle cx="962" cy="1899" r="10" opacity="1" fill="#000000" stroke="none" stroke-width="1"/>
<circle cx="961" cy="2043" r="10" opacity="1" fill="#000000" stroke="none" stroke-width="1"/>
<circle cx="882" cy="2017" r="10" opacity="1" fill="#000000" stroke="none" stroke-width="1"/>
<circle cx="929" cy="1841" r="10" opacity="1" fill="#000000" stroke="none" stroke-width="1"/>
<circle cx="847" cy="1804" r="10" opacity="1" fill="#000000" stroke="none" stroke-width="1"/>
<circle cx="794" cy="2267" r="10" opacity="1" fill="#000000" stroke="none" stroke-width="1"/>
<circle cx="695" cy="2390" r="10" opacity="1" fill="#000000" stroke="none" stroke-width="1"/>
<circle cx="731" cy="2272" r="10" opacity="1" fill="#000000" stroke="none" stroke-width="1"/>
<circle cx="646" cy="2243" r="10" opacity="1" fill="#000000" stroke="none" stroke-width="1"/>
<circle cx="638" cy="2432" r="10" opacity="1" fill="#000000" stroke="none" stroke-width="1"/>
<circle cx="551" cy="2449" r="10" opacity="1" fill="#000000" stroke="none" stroke-width="1"/>
<circle cx="1488" cy="2679" r="10" opacity="1" fill="#000000" stroke="none" stroke-width="1"/>
<circle cx="1272" cy="2861" r="10" opacity="1" fill="#000000" stroke="none" stroke-width="1"/>
<circle cx="1509" cy="2767" r="10" opacity="1" fill="#000000" stroke="none" stroke-width="1"/>
<circle cx="1659" cy="2826" r="10" opacity="1" fill="#000000" stroke="none" stroke-width="1"/>
<circle cx="1524" cy="2821" r="10" opacity="1" fill="#000000" stroke="none" stroke-width="1"/>
<circle cx="1534" cy="2905" r="10" opacity="1" fill="#000000" stroke="none" stroke-width="1"/>
<circle cx="1716" cy="2863" r="10" opacity="1" fill="#000000" stroke="none" stroke-width="1"/>
<circle cx="1752" cy="2944" r="10" opacity="1" fill="#000000" stroke="none" stroke-width="1"/>
<circle cx="1265" cy="2968" r="10" opacity="1" fill="#000000" stroke="none" stroke-width="1"/>
<circle cx="1131" cy="3054" r="10" opacity="1" fill="#000000" stroke="none" stroke-width="1"/>
<circle cx="1256" cy="3031" r="10" opacity="1" fill="#000000" stroke="none" stroke-width="1"/>
<circle cx="1276" cy="3119" r="10" opacity="1" fill="#000000" stroke="none" stroke-width="1"/>
<circle cx="1084" cy="3108" r="10" opacity="1" fill="#000000" stroke="none" stroke-width="1"/>
<circle cx="1058" cy="3192" r="10" opacity="1" fill="#000000" stroke="none" stroke-width="1"/>
</svg>
